<svg xmlns="http://www.w3.org/2000/svg" viewBox="0 0 100 100" preserveAspectRatio="xMidYMid" width="210" height="210" style="shape-rendering: auto; display: block; background: rgb(255, 255, 255);"><g data-idx="1"><g transform="matrix(1,0,0,1,20,50)" data-idx="2">
<circle fill="#005691" r="6" cy="0" cx="0" data-idx="3" transform="matrix(0.9965288043022156,0,0,0.9965288043022156,0,0)">
  
</circle>
</g><g transform="matrix(1,0,0,1,40,50)" data-idx="5">
<circle fill="#005691" r="6" cy="0" cx="0" data-idx="6" transform="matrix(0.8674835562705994,0,0,0.8674835562705994,0,0)">
  
</circle>
</g><g transform="matrix(1,0,0,1,60,50)" data-idx="8">
<circle fill="#005691" r="6" cy="0" cx="0" data-idx="9" transform="matrix(0.544695258140564,0,0,0.544695258140564,0,0)">
  
</circle>
</g><g transform="matrix(1,0,0,1,80,50)" data-idx="11">
<circle fill="#005691" r="6" cy="0" cx="0" data-idx="12" transform="matrix(0.2034820318222046,0,0,0.2034820318222046,0,0)">
  
</circle>
</g><g data-idx="14"></g></g></svg>