<svg xmlns="http://www.w3.org/2000/svg" viewBox="0 0 800 800"><defs><style>.cls-1{fill:#e9f1f5;}.cls-2{fill:#005692;}</style></defs><title>up_img</title><g id="Layer_2" data-name="Layer 2"><g id="Layer_1-2" data-name="Layer 1"><rect class="cls-1" width="800" height="800"/><path class="cls-2" d="M485.31,395l1-117.27a2.54,2.54,0,0,0-2.52-2.57l-171.66-1.5a2.55,2.55,0,0,0-2.57,2.53l-1,117.27a2.55,2.55,0,0,0,2.53,2.57l171.65,1.49A2.54,2.54,0,0,0,485.31,395ZM360.17,305.9a17,17,0,1,1-14.52-14.78A17,17,0,0,1,360.17,305.9Zm-30.89,49.53,16.94-16.65a5.1,5.1,0,0,1,7.21.07l16.65,16.93,51.22-50.34a5.1,5.1,0,0,1,7.21.07L465.37,343l-.29,34-136-1.19Z"/><path class="cls-2" d="M194.07,494.94a10.31,10.31,0,0,0,1.55,5.57,11.61,11.61,0,0,0,4.09,4,11.27,11.27,0,0,0,5.71,1.47,12,12,0,0,0,6-1.47,11.17,11.17,0,0,0,4.13-4,10.46,10.46,0,0,0,1.51-5.57V463.57h7.06v31.57a16.92,16.92,0,0,1-9.21,15.52,20.16,20.16,0,0,1-9.47,2.21,19.88,19.88,0,0,1-9.33-2.21,16.92,16.92,0,0,1-6.69-6.22,17.44,17.44,0,0,1-2.45-9.3V463.57h7.12Z"/><path class="cls-2" d="M252.37,513a13.28,13.28,0,0,1-5.91-1.38,11.74,11.74,0,0,1-4.5-3.73l.4-2.08v20h-6.85V483.72h6l.94,6.85-.74-1.94a17.2,17.2,0,0,1,5.14-4,14.34,14.34,0,0,1,6.82-1.62,13.7,13.7,0,0,1,7.12,1.88,13.34,13.34,0,0,1,5,5.31,17,17,0,0,1,1.81,8.06,15.1,15.1,0,0,1-2,7.89,13.31,13.31,0,0,1-5.41,5.11A16.72,16.72,0,0,1,252.37,513ZM251,507.57a9.65,9.65,0,0,0,4.73-1.21,9.48,9.48,0,0,0,3.5-3.33,8.84,8.84,0,0,0,1.31-4.73,9.41,9.41,0,0,0-1.25-4.87A9.21,9.21,0,0,0,256,490.1a8.8,8.8,0,0,0-4.53-1.21,9.83,9.83,0,0,0-4.17.84,9.12,9.12,0,0,0-3.09,2.32,8.71,8.71,0,0,0-1.81,3.56v5.17a8.33,8.33,0,0,0,4.64,5.91A8.85,8.85,0,0,0,251,507.57Z"/><path class="cls-2" d="M275.75,460.15h6.91v52.19h-6.91Z"/><path class="cls-2" d="M290.79,498a14.57,14.57,0,0,1,2-7.62,14.38,14.38,0,0,1,5.57-5.34,16.63,16.63,0,0,1,8.13-1.95,16.35,16.35,0,0,1,8.12,1.95,13.82,13.82,0,0,1,5.41,5.34A15.18,15.18,0,0,1,322,498a15.39,15.39,0,0,1-1.91,7.66,14,14,0,0,1-5.41,5.41,16.31,16.31,0,0,1-8.19,2,17.3,17.3,0,0,1-8-1.82,13.68,13.68,0,0,1-5.57-5.2A15.2,15.2,0,0,1,290.79,498Zm7,.07a9.79,9.79,0,0,0,1.14,4.73,8.94,8.94,0,0,0,3.09,3.36,7.9,7.9,0,0,0,4.36,1.24,8.07,8.07,0,0,0,4.44-1.24,8.76,8.76,0,0,0,3.05-3.36A10,10,0,0,0,315,498a9.83,9.83,0,0,0-1.11-4.7,9.06,9.06,0,0,0-3.05-3.36,8.32,8.32,0,0,0-8.87,0,8.94,8.94,0,0,0-3.06,3.39A9.9,9.9,0,0,0,297.78,498Z"/><path class="cls-2" d="M341.9,513a15.49,15.49,0,0,1-7.18-1.65,12.15,12.15,0,0,1-5.11-4.94,18.22,18.22,0,0,1,.1-16.32,14,14,0,0,1,5.24-5.27A14.13,14.13,0,0,1,342,483a11.68,11.68,0,0,1,6.61,1.72,13.85,13.85,0,0,1,4.07,4l-.48,1.08.68-5.58h6.38v28.15h-6.92v-7.06l.74,1.68a8,8,0,0,1-1.14,1.51,15.92,15.92,0,0,1-2.32,2,13.06,13.06,0,0,1-3.36,1.78A12.65,12.65,0,0,1,341.9,513Zm1.88-5.65a9.28,9.28,0,0,0,4-.8,8.3,8.3,0,0,0,3-2.28,8.52,8.52,0,0,0,1.68-3.5v-5.84a8,8,0,0,0-1.81-3.26,9.41,9.41,0,0,0-7-3,8.66,8.66,0,0,0-4.43,1.18,8.79,8.79,0,0,0-3.23,3.26,9.48,9.48,0,0,0-1.2,4.83,9.4,9.4,0,0,0,4.56,8.16A8.62,8.62,0,0,0,343.78,507.36Z"/><path class="cls-2" d="M381.39,513a13.81,13.81,0,0,1-7.11-1.85,12.91,12.91,0,0,1-5-5.27,16.86,16.86,0,0,1-1.82-8,15.57,15.57,0,0,1,1.95-8,13.34,13.34,0,0,1,5.27-5.11A15.69,15.69,0,0,1,382.2,483a14.93,14.93,0,0,1,6.15,1.31,10.7,10.7,0,0,1,4.53,3.66l-.2,2.35V460.15h6.85v52.19h-6.92v-6.65l.74,1.81a17.63,17.63,0,0,1-5.1,3.93A14.64,14.64,0,0,1,381.39,513Zm2.15-5.85a10.3,10.3,0,0,0,4.17-.8A8.52,8.52,0,0,0,390.8,504a9,9,0,0,0,1.81-3.53v-5.64a7.52,7.52,0,0,0-1.78-3.32,9,9,0,0,0-3.19-2.25,10.24,10.24,0,0,0-4.1-.81,9,9,0,0,0-7.82,4.43,9.93,9.93,0,0,0,0,9.61,9.39,9.39,0,0,0,3.32,3.39A8.62,8.62,0,0,0,383.54,507.16Z"/><path class="cls-2" d="M431.1,474.12a3.37,3.37,0,0,1,1.27-2.69,4.23,4.23,0,0,1,2.76-1.07,4,4,0,0,1,2.75,1.07,3.44,3.44,0,0,1,1.21,2.69,3.33,3.33,0,0,1-1.21,2.65,4.05,4.05,0,0,1-2.75,1,4.25,4.25,0,0,1-2.76-1A3.27,3.27,0,0,1,431.1,474.12Zm.4,10.07h6.92v28.15H431.5Z"/><path class="cls-2" d="M455.14,484.19l.61,6.05-.27-.47a12.28,12.28,0,0,1,4.43-4.94,12,12,0,0,1,6.52-1.78,11.09,11.09,0,0,1,4.13.74,8,8,0,0,1,3.05,2.08,6.55,6.55,0,0,1,1.55,3.36l-.34.2a12.85,12.85,0,0,1,4.47-4.67,11.18,11.18,0,0,1,5.94-1.71,9.09,9.09,0,0,1,6.55,2.35,8.23,8.23,0,0,1,2.52,6.05v20.89h-6.85V494.07a6.86,6.86,0,0,0-1-3.5,3.79,3.79,0,0,0-3.19-1.54,6.6,6.6,0,0,0-4.27,1.48,9.66,9.66,0,0,0-2.85,3.82,13.3,13.3,0,0,0-1.08,5v13h-6.92V494.07a6.59,6.59,0,0,0-1-3.5,4,4,0,0,0-3.3-1.54,6.48,6.48,0,0,0-4.23,1.48,9.36,9.36,0,0,0-2.78,3.86,13.1,13.1,0,0,0-1,5v13H449V484.19Z"/><path class="cls-2" d="M516.67,513a15.53,15.53,0,0,1-7.19-1.65,12.21,12.21,0,0,1-5.11-4.94,18.22,18.22,0,0,1,.1-16.32,14,14,0,0,1,5.24-5.27A14.16,14.16,0,0,1,516.8,483a11.71,11.71,0,0,1,6.62,1.72,13.93,13.93,0,0,1,4.06,4l-.47,1.08.67-5.58h6.38v28.15h-6.92v-7.06l.74,1.68a8,8,0,0,1-1.14,1.51,14.92,14.92,0,0,1-2.32,2,13.06,13.06,0,0,1-3.36,1.78A12.63,12.63,0,0,1,516.67,513Zm1.88-5.65a9.34,9.34,0,0,0,4-.8,8.26,8.26,0,0,0,3-2.28,8.39,8.39,0,0,0,1.68-3.5v-5.84a8,8,0,0,0-1.81-3.26,9.41,9.41,0,0,0-7-3,8.66,8.66,0,0,0-4.43,1.18,8.76,8.76,0,0,0-3.22,3.26,9.6,9.6,0,0,0,3.36,13A8.57,8.57,0,0,0,518.55,507.36Z"/><path class="cls-2" d="M558.44,526.31a19.73,19.73,0,0,1-5.71-.74,16.17,16.17,0,0,1-4.33-2.05,44.09,44.09,0,0,1-3.66-2.79l4.1-4.77a20.08,20.08,0,0,0,4.3,3.13,10.89,10.89,0,0,0,5.17,1.17,12,12,0,0,0,5.07-1,7.64,7.64,0,0,0,3.26-2.72,7.48,7.48,0,0,0,1.14-4.17l.07-7.32.47,1.34a10.13,10.13,0,0,1-4.24,4.67,14.12,14.12,0,0,1-7.59,1.92,13.53,13.53,0,0,1-7.08-1.95,14.66,14.66,0,0,1-5.21-5.31,15.84,15.84,0,0,1,.1-15.41,15.48,15.48,0,0,1,5.41-5.38,14,14,0,0,1,7.19-2,15.14,15.14,0,0,1,6.71,1.45,11.21,11.21,0,0,1,4.44,3.59l-.41,1.14.74-5h6.38v28.28a12.48,12.48,0,0,1-2,7,14.41,14.41,0,0,1-5.67,5A18.77,18.77,0,0,1,558.44,526.31ZM549.24,498a9.5,9.5,0,0,0,1.21,4.77,9,9,0,0,0,3.32,3.39,9.16,9.16,0,0,0,4.74,1.24,10.24,10.24,0,0,0,4.23-.83,9.37,9.37,0,0,0,3.19-2.29,9,9,0,0,0,1.92-3.39V495a8.3,8.3,0,0,0-2-3.33,9.9,9.9,0,0,0-3.23-2.18,10.39,10.39,0,0,0-4.16-.81,9.63,9.63,0,0,0-4.74,1.18,8.59,8.59,0,0,0-3.32,3.26A9.39,9.39,0,0,0,549.24,498Z"/><path class="cls-2" d="M598.54,513a17.21,17.21,0,0,1-8.4-1.92,13.3,13.3,0,0,1-5.37-5.3,15.78,15.78,0,0,1-1.88-7.76,14,14,0,0,1,2.12-7.56,15.57,15.57,0,0,1,5.7-5.4,15.94,15.94,0,0,1,8-2,13.63,13.63,0,0,1,9.37,3.29,16.48,16.48,0,0,1,5,9.2l-22.91,7.93-1.61-4,18.34-6.58-1.41.87a9.56,9.56,0,0,0-2.55-3.66,6.88,6.88,0,0,0-4.77-1.58,8.07,8.07,0,0,0-4.34,1.18,8.44,8.44,0,0,0-3,3.22,10,10,0,0,0-1.11,4.8,10.05,10.05,0,0,0,1.18,4.94,8.64,8.64,0,0,0,3.22,3.32,8.86,8.86,0,0,0,4.6,1.21,9,9,0,0,0,3.46-.67,17.15,17.15,0,0,0,3.13-1.68l3.15,5.11a20.89,20.89,0,0,1-4.8,2.25A16.32,16.32,0,0,1,598.54,513Z"/></g></g></svg>