<svg xmlns="http://www.w3.org/2000/svg" viewBox="0 0 2280.08 2280.08"><defs><style>.cls-1{fill:#e9f1f5;}.cls-2{fill:#005692;}</style></defs><title>up_img_1</title><g id="Layer_2" data-name="Layer 2"><g id="Layer_1-2" data-name="Layer 1"><rect class="cls-1" width="2280.08" height="2280.08"/><path class="cls-2" d="M1383.2,1125.87l2.9-334.23a7.26,7.26,0,0,0-7.2-7.33l-489.24-4.25a7.27,7.27,0,0,0-7.33,7.2l-2.9,334.24a7.25,7.25,0,0,0,7.2,7.32l489.24,4.25A7.27,7.27,0,0,0,1383.2,1125.87Zm-356.67-254a48.45,48.45,0,1,1-41.38-42.11A48.47,48.47,0,0,1,1026.53,871.84ZM938.5,1013l48.27-47.44a14.54,14.54,0,0,1,20.55.18l47.44,48.27,146-143.48a14.54,14.54,0,0,1,20.55.18l105.07,106.9-.84,96.88L938,1071.14Z"/><path class="cls-2" d="M553.13,1410.63a29.44,29.44,0,0,0,4.4,15.89,32.91,32.91,0,0,0,11.68,11.29,31.85,31.85,0,0,0,16.27,4.21,34.07,34.07,0,0,0,17-4.21,31.76,31.76,0,0,0,11.77-11.29,30,30,0,0,0,4.31-15.89v-89.4h20.1v90q0,15.13-7.09,26.52a48.72,48.72,0,0,1-19.14,17.7,57.3,57.3,0,0,1-27,6.32,56.48,56.48,0,0,1-26.61-6.32,48.08,48.08,0,0,1-19-17.7q-7-11.4-7-26.52v-90h20.29Z"/><path class="cls-2" d="M719.29,1462.12a38,38,0,0,1-16.85-3.92,33.45,33.45,0,0,1-12.83-10.63l1.15-5.93v57H671.24v-120h17l2.68,19.53-2.1-5.56a49.48,49.48,0,0,1,14.64-11.48,41,41,0,0,1,19.43-4.59,38.91,38.91,0,0,1,20.29,5.35A37.79,37.79,0,0,1,757.38,1397q5.18,9.76,5.17,23,0,13-5.65,22.49a38,38,0,0,1-15.41,14.55A47.47,47.47,0,0,1,719.29,1462.12Zm-3.83-15.5a27.36,27.36,0,0,0,13.49-3.45,26.79,26.79,0,0,0,10-9.47,25.11,25.11,0,0,0,3.73-13.5,26.91,26.91,0,0,0-3.54-13.88,26.13,26.13,0,0,0-9.38-9.47,25,25,0,0,0-12.92-3.45,28,28,0,0,0-11.87,2.39,25.89,25.89,0,0,0-8.81,6.61,24.78,24.78,0,0,0-5.17,10.14v14.74a23.76,23.76,0,0,0,4.6,10,24.11,24.11,0,0,0,8.61,6.89A25.7,25.7,0,0,0,715.46,1446.62Z"/><path class="cls-2" d="M785.9,1311.47h19.72v148.74H785.9Z"/><path class="cls-2" d="M828.78,1419.24a41.68,41.68,0,0,1,5.75-21.72,40.87,40.87,0,0,1,15.88-15.22,47.51,47.51,0,0,1,23.17-5.55q13.2,0,23.16,5.55a39.3,39.3,0,0,1,15.41,15.22,43.36,43.36,0,0,1,5.45,21.72,44,44,0,0,1-5.45,21.83,39.9,39.9,0,0,1-15.41,15.41q-10,5.64-23.36,5.64a49.34,49.34,0,0,1-22.87-5.16,39.11,39.11,0,0,1-15.89-14.84Q828.79,1432.46,828.78,1419.24Zm19.91.2a27.94,27.94,0,0,0,3.25,13.49,25.49,25.49,0,0,0,8.81,9.57,22.65,22.65,0,0,0,12.44,3.54,23,23,0,0,0,12.64-3.54,24.77,24.77,0,0,0,8.71-9.57,28.7,28.7,0,0,0,3.16-13.49,28.18,28.18,0,0,0-3.16-13.41,25.79,25.79,0,0,0-8.71-9.57,23.8,23.8,0,0,0-25.27,0,25.48,25.48,0,0,0-8.71,9.67A28.2,28.2,0,0,0,848.69,1419.44Z"/><path class="cls-2" d="M974.45,1462.12a44.35,44.35,0,0,1-20.48-4.69,34.69,34.69,0,0,1-14.55-14.07q-5.35-9.37-5.36-23.16,0-13.59,5.65-23.35a39.76,39.76,0,0,1,14.93-15,40.25,40.25,0,0,1,20.2-5.26q11.49,0,18.86,4.88a39.47,39.47,0,0,1,11.58,11.39l-1.35,3.06,1.92-15.89H1024v80.21h-19.72v-20.1l2.1,4.79a22.48,22.48,0,0,1-3.25,4.3,44.59,44.59,0,0,1-6.61,5.84,37.85,37.85,0,0,1-9.56,5.07A36.23,36.23,0,0,1,974.45,1462.12Zm5.36-16.08a26.68,26.68,0,0,0,11.3-2.29,23.29,23.29,0,0,0,8.42-6.51,24.21,24.21,0,0,0,4.79-10v-16.65a22.79,22.79,0,0,0-5.17-9.29,26.64,26.64,0,0,0-19.91-8.51,24.65,24.65,0,0,0-12.63,3.35,25.18,25.18,0,0,0-9.19,9.28,28.56,28.56,0,0,0,.09,27.38,26.46,26.46,0,0,0,9.48,9.66A24.6,24.6,0,0,0,979.81,1446Z"/><path class="cls-2" d="M1087,1462.12a39.37,39.37,0,0,1-20.29-5.26,36.94,36.94,0,0,1-14.17-15q-5.18-9.76-5.17-22.78,0-13.4,5.55-22.87a37.81,37.81,0,0,1,15-14.55,44.52,44.52,0,0,1,21.34-5.07,42.32,42.32,0,0,1,17.52,3.73,30.23,30.23,0,0,1,12.92,10.43l-.57,6.7v-86h19.52v148.74H1119v-19l2.1,5.17a50.17,50.17,0,0,1-14.55,11.19A41.52,41.52,0,0,1,1087,1462.12Zm6.12-16.65a29,29,0,0,0,11.87-2.3,24.3,24.3,0,0,0,8.81-6.6,25.73,25.73,0,0,0,5.17-10v-16.08a21.89,21.89,0,0,0-5.08-9.48,25.89,25.89,0,0,0-9.09-6.41,29.4,29.4,0,0,0-11.68-2.3,25.49,25.49,0,0,0-22.3,12.64,26.37,26.37,0,0,0-3.54,13.78,26.79,26.79,0,0,0,13,23.26A24.57,24.57,0,0,0,1093.14,1445.47Z"/><path class="cls-2" d="M1228.67,1351.29a9.59,9.59,0,0,1,3.64-7.66,12,12,0,0,1,7.85-3.06,11.51,11.51,0,0,1,7.85,3.06,9.8,9.8,0,0,1,3.44,7.66,9.53,9.53,0,0,1-3.44,7.56,11.71,11.71,0,0,1-7.85,3,12.16,12.16,0,0,1-7.85-3A9.33,9.33,0,0,1,1228.67,1351.29Zm1.15,28.71h19.72v80.21h-19.72Z"/><path class="cls-2" d="M1297.2,1380l1.73,17.23-.77-1.34a35,35,0,0,1,12.64-14.07,34,34,0,0,1,18.57-5.07,31.55,31.55,0,0,1,11.77,2.1,23,23,0,0,1,8.71,5.94,18.54,18.54,0,0,1,4.4,9.57l-1,.57a36.39,36.39,0,0,1,12.73-13.3,31.76,31.76,0,0,1,16.94-4.88q11.68,0,18.67,6.7t7.18,17.22v59.54h-19.53v-52.07a19.28,19.28,0,0,0-2.77-10q-2.6-4-9.1-4.41a18.89,18.89,0,0,0-12.15,4.22,27.59,27.59,0,0,0-8.14,10.91,38.43,38.43,0,0,0-3.06,14.35v37h-19.72v-52.07a18.67,18.67,0,0,0-2.87-10q-2.68-4-9.38-4.41A18.51,18.51,0,0,0,1310,1398a26.88,26.88,0,0,0-7.94,11,37.39,37.39,0,0,0-2.78,14.26v37h-19.72V1380Z"/><path class="cls-2" d="M1472.55,1462.12a44.32,44.32,0,0,1-20.48-4.69,34.58,34.58,0,0,1-14.55-14.07q-5.36-9.37-5.36-23.16,0-13.59,5.65-23.35a39.69,39.69,0,0,1,14.93-15,40.24,40.24,0,0,1,20.19-5.26q11.49,0,18.86,4.88a39.47,39.47,0,0,1,11.58,11.39l-1.34,3.06L1504,1380h18.18v80.21h-19.72v-20.1l2.11,4.79a22.93,22.93,0,0,1-3.25,4.3,45.1,45.1,0,0,1-6.61,5.84,37.75,37.75,0,0,1-9.57,5.07A36.18,36.18,0,0,1,1472.55,1462.12Zm5.36-16.08a26.75,26.75,0,0,0,11.3-2.29,23.46,23.46,0,0,0,8.42-6.51,24.07,24.07,0,0,0,4.78-10v-16.65a22.65,22.65,0,0,0-5.16-9.29,26.69,26.69,0,0,0-19.91-8.51,24.66,24.66,0,0,0-12.64,3.35,25.18,25.18,0,0,0-9.19,9.28,27,27,0,0,0-3.44,13.78,26.78,26.78,0,0,0,13,23.26A24.63,24.63,0,0,0,1477.91,1446Z"/><path class="cls-2" d="M1591.62,1500a56.06,56.06,0,0,1-16.27-2.11,45.1,45.1,0,0,1-12.35-5.84,128.35,128.35,0,0,1-10.43-7.94l11.68-13.59a57.23,57.23,0,0,0,12.25,8.9,31,31,0,0,0,14.74,3.35,34.36,34.36,0,0,0,14.45-2.78,21.47,21.47,0,0,0,9.28-7.75,21.22,21.22,0,0,0,3.26-11.87l.19-20.87,1.34,3.83q-3.26,7.86-12.06,13.31t-21.63,5.45a38.65,38.65,0,0,1-20.2-5.55,41.6,41.6,0,0,1-14.83-15.12,45.18,45.18,0,0,1,.28-43.93,43.73,43.73,0,0,1,15.41-15.32,39.69,39.69,0,0,1,20.49-5.64,43.12,43.12,0,0,1,19.14,4.11q8.42,4.13,12.63,10.24l-1.15,3.26L1620,1380h18.19v80.59a35.73,35.73,0,0,1-5.84,20,41.35,41.35,0,0,1-16.18,14.16Q1605.79,1500,1591.62,1500Zm-26.23-80.79a27.26,27.26,0,0,0,3.45,13.6,25.49,25.49,0,0,0,9.48,9.66,26.1,26.1,0,0,0,13.49,3.54,29.18,29.18,0,0,0,12.06-2.39,26.8,26.8,0,0,0,9.09-6.51,25.31,25.31,0,0,0,5.46-9.67v-16.65a23.26,23.26,0,0,0-5.55-9.48,28.53,28.53,0,0,0-9.19-6.22,29.84,29.84,0,0,0-11.87-2.29,27.29,27.29,0,0,0-13.49,3.35,24.51,24.51,0,0,0-9.48,9.28A26.93,26.93,0,0,0,1565.39,1419.24Z"/><path class="cls-2" d="M1705.9,1462.12q-14,0-23.93-5.45a38,38,0,0,1-15.31-15.13,44.72,44.72,0,0,1-5.36-22.1,39.88,39.88,0,0,1,6-21.54,44.45,44.45,0,0,1,16.27-15.41,45.54,45.54,0,0,1,22.68-5.74q16.08,0,26.71,9.38t14.26,26.22L1682,1434.94l-4.59-11.49,52.26-18.76-4,2.49a27.18,27.18,0,0,0-7.28-10.43q-5-4.5-13.59-4.5a23.12,23.12,0,0,0-12.34,3.35,24,24,0,0,0-8.62,9.19,31.23,31.23,0,0,0,.19,27.76,24.67,24.67,0,0,0,9.19,9.47,25.27,25.27,0,0,0,13.11,3.45,26,26,0,0,0,9.86-1.91,48.34,48.34,0,0,0,8.9-4.79l9,14.55a59.36,59.36,0,0,1-13.69,6.41A46.47,46.47,0,0,1,1705.9,1462.12Z"/></g></g></svg>